<svg id="Capa_1" data-name="Capa 1" xmlns="http://www.w3.org/2000/svg" xmlns:xlink="http://www.w3.org/1999/xlink" viewBox="0 0 1366 768"><defs><style>.cls-1{fill:#242321;}.cls-2{fill:url(#Degradado_sin_nombre_11);}.cls-3{fill:url(#Degradado_sin_nombre_11-2);}.cls-4{fill:url(#Degradado_sin_nombre_11-3);}.cls-5{fill:url(#Degradado_sin_nombre_11-4);}.cls-6{fill:url(#Degradado_sin_nombre_11-5);}</style><linearGradient id="Degradado_sin_nombre_11" x1="577.62" y1="257.11" x2="1132.61" y2="765.57" gradientUnits="userSpaceOnUse"><stop offset="0" stop-color="#1c2b59"/><stop offset="1" stop-color="#5571f2"/></linearGradient><linearGradient id="Degradado_sin_nombre_11-2" x1="655.58" y1="172.02" x2="1210.57" y2="680.48" xlink:href="#Degradado_sin_nombre_11"/><linearGradient id="Degradado_sin_nombre_11-3" x1="722.64" y1="98.82" x2="1277.63" y2="607.28" xlink:href="#Degradado_sin_nombre_11"/><linearGradient id="Degradado_sin_nombre_11-4" x1="812.58" y1="0.66" x2="1367.56" y2="509.12" xlink:href="#Degradado_sin_nombre_11"/><linearGradient id="Degradado_sin_nombre_11-5" x1="697.93" y1="125.79" x2="1252.92" y2="634.25" xlink:href="#Degradado_sin_nombre_11"/></defs><path class="cls-1" d="M187.08,497.66l-9.34-57.39H121l-9.34,57.39H70.56l47-293.9H181.2l47,293.9Zm-59.47-98.88h43.56L149.39,257Z"/><path class="cls-1" d="M357.19,497.66l-61.89-176v176H253.81V203.76H295.3l61.89,176v-176h41.49v293.9Z"/><path class="cls-1" d="M524.89,404.31v93.35h-41.5V404.31L421.5,203.76H463l41.15,133.47,41.14-133.47h41.5Z"/><path class="cls-2" d="M746.56,401.2v31.46a79.34,79.34,0,0,1-3.8,24.08,71.13,71.13,0,0,1-10.89,21.39,55.56,55.56,0,0,1-17.29,15.16,46,46,0,0,1-23,5.76H668.76q-13.49,0-23.68-6.05A56.5,56.5,0,0,1,628,477.44a71.73,71.73,0,0,1-10.55-21.27A78.19,78.19,0,0,1,613.79,433V268.42a75.47,75.47,0,0,1,4.49-26.1,61,61,0,0,1,12.8-21.09,62,62,0,0,1,19.7-14A60.27,60.27,0,0,1,676,202h11.06a54.91,54.91,0,0,1,24.9,5.53,57.45,57.45,0,0,1,18.67,14.69,67,67,0,0,1,11.75,21.27,76.16,76.16,0,0,1,4.15,24.89v28.36H705.07V268.42q0-10-4.67-17.11t-14.69-7.78H674.3a16.51,16.51,0,0,0-8.82,2.24,18.63,18.63,0,0,0-5.88,5.7,24.48,24.48,0,0,0-3.28,7.94,39.78,39.78,0,0,0-1,9V432.7q0,10.71,5.19,17.78t15.9,7.08H684q11.06,0,16.08-7.44a30.47,30.47,0,0,0,5-17.46V401.2Z"/><path class="cls-3" d="M876.57,497.66V388.4H824.7V497.66H783.21V203.76H824.7V346.91h51.87V203.76h41.49v293.9Z"/><path class="cls-4" d="M1058.78,497.66l-9.34-57.39h-56.7l-9.34,57.39H942.26l47-293.9h63.62l47,293.9Zm-59.47-98.88h43.56L1021.09,257Z"/><path class="cls-5" d="M1149.37,497.66V245.26h-48.76v-41.5H1240v41.5h-49.1v252.4Z"/><path class="cls-6" d="M1302,173.29c-8.9-21.16-33.53-35.77-61.58-35.88-51.39-.2-102.77-.08-154.16-.08q-239.34,0-478.68,0v27.72q302.05-.06,604.11,0c8.86,0,17.72-.11,26.57,0,20,.33,32.48,10.48,32.49,26.59q.09,154.41,0,308.81c0,16.65-12.89,26.79-33.77,26.82q-42.9.06-85.81,0c-16.62,0-22.35,4.57-22.36,17.91q0,63,0,126.08v10.81c-3.4-2.59-5.41-4-7.32-5.57q-88.34-70.85-176.57-141.77c-6.56-5.29-13.52-7.59-22.84-7.57q-157.24.25-314.49.09v27.84q152.34,0,304.68-.09c6.25,0,10.71,1.27,15.25,4.93q100.69,81.16,201.8,162a48.19,48.19,0,0,0,7.31,5.27c10.69,5.71,24.79.39,26.26-9.86a52.24,52.24,0,0,0,.25-7.3q0-73.4,0-146.79v-7.84c3.21-.13,5.88-.32,8.54-.32,21.26,0,42.53,0,63.79,0,35.88,0,60.1-15.32,68.83-43.43.17-.54.77-1,1.17-1.49V182.5C1304.34,179.43,1303.3,176.33,1302,173.29Z"/></svg>