<svg xmlns="http://www.w3.org/2000/svg" xmlns:xlink="http://www.w3.org/1999/xlink" viewBox="0 0 1153.9 592.3"><defs><style>.cls-1{fill:#fff;}.cls-2{fill:url(#Degradado_sin_nombre_11);}.cls-3{fill:url(#Degradado_sin_nombre_11-2);}.cls-4{fill:url(#Degradado_sin_nombre_11-3);}.cls-5{fill:url(#Degradado_sin_nombre_11-4);}.cls-6{fill:url(#Degradado_sin_nombre_11-5);}</style><linearGradient id="Degradado_sin_nombre_11" x1="426.03" y1="119.82" x2="981.02" y2="628.28" gradientUnits="userSpaceOnUse"><stop offset="0" stop-color="#1c2b59"/><stop offset="1" stop-color="#5571f2"/></linearGradient><linearGradient id="Degradado_sin_nombre_11-2" x1="504" y1="34.72" x2="1058.98" y2="543.18" xlink:href="#Degradado_sin_nombre_11"/><linearGradient id="Degradado_sin_nombre_11-3" x1="571.05" y1="-38.47" x2="1126.04" y2="469.99" xlink:href="#Degradado_sin_nombre_11"/><linearGradient id="Degradado_sin_nombre_11-4" x1="660.99" y1="-136.63" x2="1215.97" y2="371.82" xlink:href="#Degradado_sin_nombre_11"/><linearGradient id="Degradado_sin_nombre_11-5" x1="546.35" y1="-11.5" x2="1101.33" y2="496.96" xlink:href="#Degradado_sin_nombre_11"/></defs><g id="Capa_2" data-name="Capa 2"><g id="Capa_1-2" data-name="Capa 1"><path class="cls-1" d="M122.71,374.06l-9.83-60.44H53.16l-9.83,60.44H0L49.52,64.55h67L166,374.06ZM60.08,269.92H106L83,120.63Z"/><path class="cls-1" d="M193.71,374.06V64.55h71a64.81,64.81,0,0,1,27.5,5.65A62.44,62.44,0,0,1,313,85.49a68,68,0,0,1,13.11,22.39,78.59,78.59,0,0,1,4.55,26.59V304.15a76.33,76.33,0,0,1-4.91,27.67,66.79,66.79,0,0,1-13.66,22A65.17,65.17,0,0,1,291.3,368.6a63.55,63.55,0,0,1-26.59,5.46Zm71-43.69q11.66,0,16.94-7.83a32.18,32.18,0,0,0,5.28-18.39V134.47q0-11.3-5.28-18.76t-16.94-7.46h-27.3V330.37Z"/><path class="cls-1" d="M367.76,374.06V64.55h43.7V374.06Z"/><path class="cls-2" d="M595,263.9v31.47a79,79,0,0,1-3.81,24.08,71.08,71.08,0,0,1-10.89,21.38A55.72,55.72,0,0,1,563,356a46,46,0,0,1-23,5.75H517.18q-13.48,0-23.69-6.05a56.62,56.62,0,0,1-17.11-15.56,71.68,71.68,0,0,1-10.55-21.26,78.26,78.26,0,0,1-3.63-23.17V131.13A75.3,75.3,0,0,1,466.7,105a60.88,60.88,0,0,1,12.79-21.09,61.91,61.91,0,0,1,19.71-14,60.26,60.26,0,0,1,25.24-5.19H535.5a55,55,0,0,1,24.9,5.53A57.24,57.24,0,0,1,579.07,85a67.09,67.09,0,0,1,11.76,21.26,76.44,76.44,0,0,1,4.15,24.9v28.35h-41.5V131.13q0-10-4.66-17.12t-14.7-7.78H522.71a16.42,16.42,0,0,0-8.82,2.25,18.46,18.46,0,0,0-5.87,5.69,24.33,24.33,0,0,0-3.29,8,39.78,39.78,0,0,0-1,9V295.4q0,10.71,5.19,17.78t15.9,7.08h7.61q11.07,0,16.08-7.43a30.51,30.51,0,0,0,5-17.46V263.9Z"/><path class="cls-3" d="M725,360.37V251.11H673.11V360.37H631.62V66.47h41.49V209.62H725V66.47h41.49v293.9Z"/><path class="cls-4" d="M907.19,360.37,897.86,303H841.15l-9.33,57.4H790.67l47-293.9h63.62l47,293.9Zm-59.47-98.89h43.57L869.5,119.72Z"/><path class="cls-5" d="M997.78,360.37V108H949V66.47h139.34V108h-49.1V360.37Z"/><path class="cls-6" d="M1150.43,36C1141.53,14.84,1116.9.23,1088.85.12,1037.47-.09,986.08,0,934.7,0Q695.36,0,456,.05V27.77q302,0,604.1,0c8.86,0,17.72-.11,26.58,0,20,.34,32.47,10.49,32.48,26.59q.09,154.41,0,308.82c0,16.65-12.89,26.78-33.77,26.81q-42.92.08-85.81,0c-16.63,0-22.36,4.57-22.37,17.91q0,63,0,126.08v10.8c-3.4-2.58-5.41-4-7.32-5.57q-88.33-70.83-176.57-141.77c-6.56-5.29-13.52-7.58-22.84-7.57q-157.25.25-314.48.1v27.83q152.33,0,304.67-.09c6.25,0,10.71,1.28,15.25,4.93q100.71,81.16,201.8,162a48.53,48.53,0,0,0,7.32,5.28c10.69,5.71,24.78.38,26.25-9.86a52.3,52.3,0,0,0,.25-7.3q0-73.39,0-146.79v-7.85c3.21-.12,5.88-.31,8.54-.32q31.91,0,63.79,0c35.88,0,60.1-15.33,68.84-43.43.17-.54.76-1,1.16-1.49V45.2C1152.75,42.13,1151.71,39,1150.43,36Z"/></g></g></svg>